<svg width="98" height="115" viewBox="0 0 98 115" fill="none" xmlns="http://www.w3.org/2000/svg">
<path d="M96.837 33.8208C96.4627 31.9812 96.0349 30.4245 95.6071 29.2925C88.976 11.934 70.6336 0.14151 49.9382 0H48.0665C27.3711 0.14151 9.02867 11.934 2.39759 29.2925C1.96977 30.4245 1.54196 31.9812 1.16763 33.8208C-0.276237 41.0849 0.632864 48.3962 3.78798 54.8585C3.89493 55.0472 4.00188 55.2831 4.16231 55.6132C6.72918 60.6132 10.526 66.4151 14.2159 72.0283C17.371 76.8868 20.6331 81.8868 22.986 86.1321C23.6277 87.2642 25.1786 87.7359 26.462 87.1698C27.7454 86.6038 28.2802 85.2359 27.6385 84.1038C25.232 79.6698 21.9165 74.6227 18.7079 69.717C15.125 64.1981 11.3816 58.4906 8.92172 53.6793L8.60086 53.1132C5.7666 47.3585 4.96446 40.9434 6.24789 34.5755C6.56875 32.9245 6.88961 31.651 7.26395 30.7076C13.1998 15.1887 29.5636 4.66981 48.013 4.5283H49.8312C68.2806 4.66981 84.6979 15.1887 90.6338 30.7076C91.0081 31.651 91.329 32.9245 91.6498 34.5755C92.9333 40.9434 92.1311 47.3585 89.2969 53.0661C89.2434 53.2076 89.1364 53.3491 89.0829 53.4906L88.976 53.6793C86.4626 58.4906 82.7727 64.1981 79.1898 69.717C75.9812 74.6227 72.7191 79.6698 70.2592 84.1038C69.6175 85.2359 70.1523 86.6038 71.4357 87.1698C71.81 87.3114 72.1844 87.4057 72.5587 87.4057C73.5213 87.4057 74.4304 86.934 74.9117 86.1321C77.2646 81.8397 80.5267 76.8397 83.6818 72.0283C87.3182 66.4151 91.1151 60.6132 93.7354 55.5661L94.0563 54.9529C97.3718 48.3963 98.2809 41.0849 96.837 33.8208Z" fill="black"/>
<path d="M67.9063 92.6415H30.2054C28.9219 92.6415 27.7454 93.1604 26.8898 94.0094C26.0877 94.8585 25.7668 95.9906 25.9807 97.1227L27.7989 105.519C28.1733 107.311 29.938 108.585 32.0236 108.585H34.9113C38.1734 112.594 43.4675 115 49.0826 115C54.6976 115 59.9918 112.547 63.2538 108.585H66.1416C68.1737 108.585 69.9384 107.311 70.3662 105.519L72.1844 97.1227C72.3983 96.0377 72.0774 94.9057 71.2753 94.0094C70.3662 93.1132 69.1362 92.6415 67.9063 92.6415ZM65.3394 104.009H61.81C60.9009 104.009 60.0452 104.434 59.5639 105.142C57.3714 108.396 53.3607 110.472 49.0291 110.472C44.751 110.472 40.6867 108.443 38.4942 105.142C38.0129 104.434 37.1573 104.009 36.2482 104.009H32.7188L31.2749 97.217H66.7833L65.3394 104.009Z" fill="black"/>
<path d="M44.537 47.6887C45.0718 48.1604 45.7135 48.3962 46.4087 48.3962C47.0504 48.3962 47.6922 48.2075 48.1735 47.783L58.334 39.2453C59.35 38.3962 59.4035 36.9339 58.4409 36.0377C57.4784 35.1415 55.8206 35.0943 54.751 35.9434L46.4622 42.8773L43.3606 40.0472C42.3445 39.1509 40.7402 39.1038 39.6707 40C38.6546 40.8962 38.6012 42.3113 39.6172 43.2547L44.537 47.6887Z" fill="black"/>
<path d="M27.478 52.8302C26.5689 53.6321 26.462 54.8585 27.2107 55.8019C28.9219 57.8774 31.0075 59.717 33.3605 61.2265C34.3765 61.8868 35.6065 61.8868 36.5156 61.1321C36.6225 61.0378 36.7295 60.9906 36.8364 60.8963C37.2642 60.5189 37.6921 60.0944 38.1733 59.717C38.2268 59.6699 38.2803 59.6227 38.3338 59.5755C39.6707 60.2359 41.1145 60.7076 42.5584 61.1321C42.5584 61.2736 42.5584 61.368 42.5584 61.5095C42.5584 62.0284 42.5584 62.5 42.5584 63.1133C42.5584 64.2453 43.4675 65.1887 44.7509 65.3774C46.1413 65.5661 47.5317 65.6604 49.0825 65.6604C50.5264 65.6604 51.9703 65.5661 53.3607 65.3774C54.6441 65.1887 55.5532 64.151 55.5532 63.0189C55.5532 62.5 55.5532 62.0284 55.5532 61.5095C55.5532 61.368 55.5532 61.2736 55.5532 61.1321C56.9971 60.7548 58.4409 60.2359 59.7778 59.5755L59.8313 59.6227C60.3126 60.0472 60.7939 60.4717 61.2752 60.8963L61.3287 60.9435C61.6495 61.2736 62.1308 61.4623 62.6121 61.6038C63.3608 61.7453 64.1094 61.6038 64.7511 61.2265C67.1576 59.717 69.1897 57.8774 70.9009 55.8019C71.6496 54.9057 71.5427 53.6321 70.6336 52.8302L69.7779 52.0283C69.5106 51.7925 69.2966 51.6038 69.0827 51.368C69.8314 50.1887 70.4197 48.9151 70.8475 47.5944H72.9865C73.2539 47.5944 73.6817 47.5472 73.9491 47.4529C74.8582 47.1699 75.5534 46.5095 75.7138 45.6604C75.9812 44.3868 76.0882 43.1132 76.0882 41.7925C76.0882 40.5661 75.9812 39.2453 75.7138 37.9246C75.4999 36.8397 74.4304 35.9906 73.147 35.9906H72.1309C71.7031 35.9906 71.2753 35.9906 70.8475 35.9906C70.4197 34.717 69.8314 33.4906 69.0827 32.3114C69.6175 31.8397 70.1523 31.368 70.687 30.9434C71.5961 30.1415 71.7566 28.868 71.0079 27.9717C69.2967 25.8491 67.2111 24.0566 64.8046 22.5C63.7886 21.8397 62.3447 21.934 61.4356 22.7831C61.0078 23.1604 60.5265 23.5849 60.0987 23.9623C59.9917 24.0566 59.9383 24.1038 59.8313 24.1981C58.4944 23.5378 57.0505 23.0661 55.6067 22.6415V22.5944C55.6067 22.5 55.6067 22.4529 55.6067 22.3585V21.7453C55.6067 21.4151 55.6067 21.0849 55.6067 20.6132C55.6067 19.4812 54.6976 18.5378 53.4141 18.3491C50.5264 17.9717 47.7456 17.9717 44.8579 18.3491C43.5745 18.5378 42.6119 19.5755 42.6654 20.7547C42.6654 21.0849 42.6654 21.4151 42.6654 21.7453V22.6415C41.2215 23.0189 39.7776 23.5378 38.4407 24.151C38.3872 24.1038 38.2803 24.0095 38.2268 23.9623C37.7455 23.5849 37.3177 23.1604 36.8899 22.7831C35.9808 21.9812 34.5369 21.8397 33.5209 22.5C31.1144 24.0095 29.0289 25.8491 27.3176 27.9717C26.5689 28.9151 26.6759 30.1415 27.6385 30.9434C28.1732 31.4151 28.708 31.8397 29.2428 32.3114C28.4941 33.4906 27.9593 34.717 27.478 35.9906C27.0502 35.9906 26.6224 35.9906 26.1946 35.9906H25.1786C23.8951 35.9906 22.8256 36.7925 22.6117 37.8774C22.3443 39.151 22.2374 40.4246 22.2374 41.7925C22.2374 43.0661 22.3443 44.3397 22.6117 45.6133C22.7721 46.5095 23.5743 47.2642 24.5368 47.4529C24.7507 47.5 25.1251 47.5 25.339 47.5472H27.4246C27.8524 48.868 28.4941 50.1416 29.1893 51.3208C28.9754 51.5095 28.7615 51.6982 28.5476 51.8868L27.478 52.8302ZM27.3176 43.0661C27.2641 42.6887 27.2641 42.2642 27.2641 41.8868C27.2641 41.4623 27.2641 41.0849 27.3176 40.6604C27.8524 40.6604 28.3337 40.6604 28.9219 40.7076C29.2962 40.7076 29.6706 40.6604 29.9914 40.6132C30.954 40.3774 31.7027 39.717 31.8631 38.868C32.2909 36.8868 33.2 35.0472 34.43 33.3963C34.9647 32.6415 35.0182 31.6981 34.4835 30.9434C34.2161 30.5661 33.9487 30.3302 33.6278 30.0472C33.307 29.7642 33.0396 29.5283 32.7187 29.2453C33.307 28.6321 33.9487 28.0661 34.6439 27.5472C35.0182 27.8774 35.3391 28.1604 35.6599 28.4434C36.0878 28.868 36.5156 29.151 37.0503 29.2925C37.799 29.5283 38.6546 29.4812 39.3498 29.0566C41.275 27.9246 43.414 27.1698 45.6066 26.7925C46.4622 26.651 47.1574 26.1321 47.5317 25.4246C47.7456 24.9529 47.7456 24.5283 47.7456 24.2453C47.7456 23.9623 47.7456 23.6793 47.7456 23.4434V22.8774C48.6012 22.8302 49.4569 22.8302 50.3125 22.8774V23.2076C50.3125 23.5378 50.3125 23.868 50.3125 24.2453C50.259 24.6698 50.366 25.0944 50.5264 25.5189C50.8473 26.2264 51.5425 26.7453 52.4516 26.8868C54.6441 27.2642 56.7832 28.0189 58.7083 29.151C59.35 29.5283 60.2056 29.6227 60.9543 29.434C61.4891 29.2925 61.9704 28.9623 62.3447 28.6321C62.719 28.3019 63.0399 27.9717 63.4142 27.6887C64.1094 28.2076 64.7511 28.7736 65.3394 29.3868C65.0185 29.6698 64.7512 29.9057 64.4838 30.1887C64.1629 30.4246 63.842 30.7076 63.5747 31.0849C63.0399 31.8397 63.0934 32.7831 63.6281 33.5378C64.9116 35.1887 65.7672 37.0283 66.195 39.0095C66.4089 39.8585 67.1041 40.5661 68.0667 40.7548C68.3876 40.8491 68.7619 40.8963 69.2432 40.8491C69.7245 40.8491 70.2058 40.8019 70.7405 40.8019C70.794 41.2265 70.794 41.6038 70.794 42.0283C70.794 42.4529 70.794 42.8302 70.7405 43.2076H68.8688C68.4945 43.2076 68.0132 43.3019 67.6389 43.4434C66.8902 43.7265 66.3554 44.3397 66.195 45.0472C65.7137 47.0755 64.8581 48.9151 63.5747 50.6133C62.9864 51.368 62.9864 52.3114 63.5212 53.1133C63.7351 53.3963 63.949 53.585 64.1094 53.7265C64.4838 54.0567 64.9116 54.3868 65.2859 54.7642C64.6977 55.3302 64.056 55.8963 63.4142 56.4151C63.0399 56.085 62.6121 55.7076 62.1843 55.3302C61.9704 55.1416 61.703 54.9529 61.4891 54.8114C60.6335 54.3397 59.5639 54.3868 58.7083 54.8585C56.7832 55.9906 54.6976 56.7453 52.4516 57.1227C51.489 57.2642 50.7403 57.9246 50.4729 58.7265C50.366 59.1038 50.3125 59.4812 50.366 59.7642C50.366 60.2359 50.366 60.6604 50.366 61.1321C49.5104 61.1793 48.6547 61.1793 47.7991 61.1321C47.7991 60.6604 47.7991 60.1887 47.7991 59.6699C47.7991 59.4812 47.7991 59.1038 47.6922 58.7265C47.4248 57.9246 46.6761 57.3114 45.7135 57.1227C43.4675 56.7453 41.3285 55.9906 39.4568 54.8585C38.6012 54.3868 37.5316 54.3397 36.676 54.8114C36.4086 54.9529 36.1947 55.0944 35.9273 55.3302C35.553 55.7076 35.1252 56.0378 34.7508 56.368C34.0557 55.8491 33.4674 55.2831 32.8792 54.717C33.2535 54.3868 33.6813 54.0095 34.1091 53.6321C34.2161 53.5378 34.4835 53.3019 34.6439 53.0189C35.1252 52.2642 35.1252 51.3208 34.5369 50.5661C33.2535 48.868 32.3444 46.9812 31.9166 45C31.7562 44.1982 31.061 43.5378 30.2053 43.3019C29.938 43.2076 29.6171 43.2076 29.2428 43.1604L27.3176 43.0661Z" fill="black"/>
</svg>
