<svg width="97" height="115" viewBox="0 0 97 115" fill="none" xmlns="http://www.w3.org/2000/svg">
<path d="M24.2244 0V20.6632H3.43119V99.4462L0.858804 101.775C-0.211579 102.734 -0.293738 104.396 0.681757 105.458L3.43119 108.476V113.657H8.14319L8.58755 114.143C9.55494 115.215 11.2097 115.289 12.2789 114.323L13.0172 113.657H76.208V92.9855H97V0H24.2244ZM17.2177 109.869L34.4387 94.3333C35.5126 93.3673 35.5843 91.6975 34.6158 90.6418L26.7088 81.957C25.7403 80.8944 24.0716 80.8196 23.0024 81.7776L7.24176 96.0031V24.4524H72.3951V42.0612C72.3951 42.0612 72.402 42.0612 72.402 42.0762C67.3556 37.8315 60.9136 35.1808 53.7866 35.1808C37.7668 35.1808 24.7798 48.0953 24.7798 64.0044C24.7798 79.9296 37.7679 92.836 53.7866 92.836C60.9055 92.836 67.3475 90.1853 72.3951 85.9556V109.869H17.2177ZM53.7878 85.0344C42.1073 85.0344 32.6417 75.6228 32.6417 64.0044C32.6417 52.4078 42.1073 42.9893 53.7878 42.9893C65.4729 42.9893 74.9339 52.4078 74.9339 64.0044C74.9351 75.624 65.4729 85.0344 53.7878 85.0344ZM93.1883 89.1974H76.208V82.1077C76.208 82.1077 76.1999 82.1077 76.1999 82.1226C80.2615 77.1512 82.7992 70.8998 82.7992 64.0044C82.7992 57.1239 80.2673 50.8794 76.208 45.9241V20.6632H28.035V3.7881H93.1883V89.1974Z" fill="black"/>
</svg>
