<svg width="97" height="115" viewBox="0 0 97 115" fill="none" xmlns="http://www.w3.org/2000/svg">
<path fill-rule="evenodd" clip-rule="evenodd" d="M15.8292 25.3638C14.6917 26.4682 13.6027 27.6281 12.566 28.8416C11.9954 29.5117 11.4397 30.1978 10.9027 30.8977C4.08921 39.7764 0 51.1118 0 63.4544C0 68.5283 0.691791 73.4316 1.97841 78.0653C2.2693 79.1142 3.30792 79.715 4.29433 79.4037C5.2826 79.0944 5.84573 77.99 5.55484 76.9411C4.64675 73.6735 4.06125 70.2592 3.83376 66.7418H23.4072C23.6477 72.7853 24.7031 78.6066 26.4578 84.0869C21.5873 86.1966 17.0431 88.9883 12.9315 92.3471C11.1488 89.8726 9.58998 87.2078 8.28658 84.3844C7.8316 83.4029 6.71467 82.9964 5.78979 83.4782C4.86678 83.962 4.48452 85.1497 4.9395 86.1331C12.8345 103.224 29.3722 115 48.4758 115C74.6091 114.964 95.9856 92.8963 96.9198 65.3381C96.972 65.1556 97 64.9613 97 64.7591C97 64.5925 96.9813 64.4319 96.9441 64.2793C96.9497 64.0057 96.9515 63.73 96.9515 63.4544C96.9515 54.6332 94.8612 46.3274 91.1822 39.0646C90.6956 38.101 89.5637 37.7402 88.6575 38.2577C87.7513 38.7771 87.4119 39.9807 87.9004 40.9443C91.2009 47.4616 93.114 54.889 93.2166 62.7763H73.6823C73.6077 58.9615 73.2106 55.23 72.5151 51.6135C72.6754 51.0583 72.7593 50.4754 72.7593 49.8746V30.3584C72.7593 30.3128 72.7575 30.2672 72.7556 30.2216L77.6448 27.3862C79.6437 29.2163 81.4897 31.2308 83.1586 33.4059C83.8093 34.2545 84.9859 34.3794 85.7822 33.6874C86.5802 32.9974 86.6996 31.7463 86.0488 30.8977C84.5366 28.9288 82.8901 27.0789 81.1261 25.3678L83.9082 23.7538C84.5067 23.4049 84.8797 22.7387 84.8797 22.013C84.8797 21.2873 84.5067 20.6191 83.9082 20.2721L49.3745 0.242391C48.817 -0.080797 48.1457 -0.080797 47.5882 0.242391L13.0545 20.2721C12.456 20.6191 12.083 21.2873 12.083 22.013C12.083 22.7387 12.456 23.4049 13.0545 23.7538L15.8292 25.3638ZM27.7742 87.7987C23.2953 89.7497 19.1128 92.3134 15.322 95.3946C22.4002 103.696 32.1953 109.331 43.2081 110.707C36.5438 104.474 31.2239 96.6516 27.7742 87.7987ZM69.2556 87.8482C65.8078 96.6734 60.501 104.474 53.8553 110.693C64.814 109.296 74.5625 103.677 81.6146 95.4124C77.8499 92.3491 73.6991 89.7973 69.2556 87.8482ZM50.3889 83.5219V108.631C57.0458 102.697 62.3563 95.109 65.7575 86.4623C60.9019 84.7393 55.7442 83.7201 50.3889 83.5219ZM46.6596 83.5179C41.3024 83.7023 36.1391 84.7075 31.2761 86.4206C34.6754 95.0833 39.9915 102.687 46.6596 108.631V83.5179ZM93.1159 66.7418H73.6413C73.4008 72.8051 72.3398 78.6443 70.5739 84.1365C75.409 86.2461 79.9215 89.024 84.007 92.3649C89.1982 85.1656 92.4987 76.3423 93.1159 66.7418ZM69.9082 66.7418H50.3889V79.5544C56.2067 79.7566 61.81 80.865 67.0777 82.7506C68.6943 77.6906 69.6714 72.3193 69.9082 66.7418ZM46.6596 79.5504V66.7418H27.1402C27.377 72.3015 28.3485 77.6589 29.9577 82.7069C35.231 80.8333 40.8399 79.7388 46.6596 79.5504ZM69.3526 55.3509C69.3339 55.3589 52.3934 62.7763 52.3934 62.7763H69.9511C69.8989 60.2583 69.6975 57.7798 69.3526 55.3509ZM20.5486 28.1V49.5692C20.5486 50.6637 19.7133 51.552 18.684 51.552C17.6547 51.552 16.8193 50.6637 16.8193 49.5692V29.8409C16.3102 30.3842 15.8124 30.9393 15.3294 31.5064C14.8017 32.125 14.2889 32.7575 13.7911 33.4059C7.62835 41.438 3.88037 51.6472 3.73306 62.7763H23.3661C23.4407 58.9695 23.8379 55.2459 24.5297 51.6353C24.3656 51.0742 24.278 50.4813 24.278 49.8726V30.3584C24.2761 30.3901 24.278 30.3267 24.278 30.3584L20.5486 28.1ZM27.6959 55.3529C27.3528 57.7818 27.1496 60.2583 27.0973 62.7763H44.6979C44.6979 62.7763 27.7127 55.3609 27.6959 55.3529ZM69.03 32.3828L63.3968 35.6503C62.4925 36.1738 61.3587 35.8189 60.8665 34.8592C60.3742 33.8976 60.708 32.6921 61.6105 32.1686L79.1216 22.013L48.4814 4.2416L17.8411 22.013L48.4814 39.7844L55.1214 35.9319C56.0258 35.4084 57.1595 35.7634 57.6518 36.723C58.1441 37.6846 57.8103 38.8902 56.9078 39.4136L49.3745 43.7836C48.817 44.1048 48.1457 44.1048 47.5882 43.7836L28.0073 32.4264V49.8726C28.0073 50.6776 28.4642 51.4013 29.1634 51.7066L48.5485 60.171L67.8758 51.7086C68.5731 51.4033 69.03 50.6796 69.03 49.8746V32.3828Z" fill="black"/>
</svg>
