<svg width="97" height="105" viewBox="0 0 97 105" fill="none" xmlns="http://www.w3.org/2000/svg">
<path d="M82.7277 40.0102C87.4571 40.0102 91.2911 34.8628 91.2911 28.513C91.2911 22.1633 87.4571 17.0158 82.7277 17.0158C77.9983 17.0158 74.1644 22.1633 74.1644 28.513C74.1644 34.8628 77.9983 40.0102 82.7277 40.0102Z" fill="black"/>
<path d="M48.4172 22.9944C53.1466 22.9944 56.9806 17.8469 56.9806 11.4972C56.9806 5.14747 53.1466 0 48.4172 0C43.6878 0 39.8539 5.14747 39.8539 11.4972C39.8539 17.8469 43.6878 22.9944 48.4172 22.9944Z" fill="black"/>
<path d="M62.6895 51.4691V39.9719C62.6895 36.9227 61.7873 33.9983 60.1813 31.8422C58.5754 29.686 56.3973 28.4747 54.1261 28.4747H42.7083C40.4372 28.4747 38.259 29.686 36.6531 31.8422C35.0472 33.9983 34.145 36.9227 34.145 39.9719V51.4691H62.6895Z" fill="black"/>
<path d="M14.4207 40.0102C19.1501 40.0102 22.9841 34.8628 22.9841 28.513C22.9841 22.1633 19.1501 17.0158 14.4207 17.0158C9.69128 17.0158 5.85734 22.1633 5.85734 28.513C5.85734 34.8628 9.69128 40.0102 14.4207 40.0102Z" fill="black"/>
<path d="M88.5508 45.6438H82.8419C78.115 45.6438 72.6801 50.7908 72.6801 57.141L88.2083 86.1906H97V57.141C97.0002 54.1182 96.1137 51.2168 94.5323 49.065C92.951 46.9132 90.8021 45.6842 88.5508 45.6438ZM29.8633 55.244L20.7576 74.4635H14.1638L24.1544 55.3015C24.1544 48.9397 20.3294 45.5289 15.591 45.5289H8.56336C6.29221 45.5289 4.11409 46.7402 2.50815 48.8963C0.902208 51.0525 0 53.9768 0 57.0261V78.2959C0 80.3287 0.601472 82.2783 1.6721 83.7157C2.74273 85.1531 4.19481 85.9607 5.7089 85.9607H27.0088L26.8376 89.954H11.7661L5.60043 105H91.234L66.9712 55.244H29.8633Z" fill="black"/>
</svg>
