<svg width="98" height="115" viewBox="0 0 98 115" fill="none" xmlns="http://www.w3.org/2000/svg">
<path d="M57.0553 27.4109L57.0512 27.4091H57.0264L56.9996 27.4073H56.9975L56.9665 27.4055L56.95 27.4036H56.9376L56.8159 27.4018H41.1796L41.0579 27.4036H41.0475L41.029 27.4055L40.998 27.4073L40.9691 27.4091H40.9464L40.9382 27.4109C40.383 27.4615 39.8814 27.6801 39.5079 28.0016L39.4975 28.0107C39.0765 28.3864 38.8123 28.9049 38.8123 29.4722C38.8123 30.0412 39.0765 30.5597 39.4975 30.9337L39.5079 30.9427C39.8835 31.2661 40.383 31.4847 40.9382 31.5334L40.9464 31.5352H40.9691L40.998 31.537L41.029 31.5389L41.0475 31.5407H41.0579L41.1796 31.5425H56.8159L56.9376 31.5407H56.95L56.9665 31.5389L56.9975 31.537H56.9996L57.0264 31.5352H57.0512L57.0553 31.5334C57.6105 31.4829 58.1099 31.2679 58.4856 30.9427L58.4959 30.9337C58.9169 30.5579 59.1811 30.0394 59.1811 29.4722C59.1811 28.9031 58.9169 28.3846 58.4959 28.0107L58.4856 28.0016C58.1099 27.6782 57.6105 27.4597 57.0553 27.4109ZM46.9442 46.8874C46.9442 45.8956 47.8647 45.0898 48.9977 45.0898C50.1308 45.0898 51.0513 45.8956 51.0513 46.8874V51.9782C52.9378 52.0667 54.818 52.3413 56.6095 52.8111C62.4937 54.3575 67.4389 57.9941 68.8299 64.0894C69.0508 65.0613 68.3284 66.0079 67.218 66.2012C66.1076 66.3945 65.0261 65.7623 64.8053 64.7903C63.7568 60.1981 59.9633 57.4376 55.4413 56.2507C54.0316 55.8822 52.5518 55.6582 51.0534 55.5751V72.7735C53.1256 72.7843 55.2597 72.9198 57.6125 73.5467C60.2028 74.235 62.8136 75.4779 64.6546 77.6476C66.1345 79.3945 67.09 81.6943 67.09 84.7148C67.09 89.4354 63.7527 92.978 59.0201 95.0718C56.6363 96.125 53.8872 96.8115 51.0555 97.0771V102.322C51.0555 103.313 50.135 104.119 49.0019 104.119C47.8688 104.119 46.9483 103.313 46.9483 102.322V97.1728C45.0619 97.0843 43.1816 96.8115 41.3902 96.3436C35.508 94.7972 30.5628 91.1588 29.1697 85.0653C28.9489 84.0934 29.6712 83.1467 30.7816 82.9534C31.892 82.7601 32.9735 83.3924 33.1943 84.3644C34.2469 88.9566 38.0363 91.717 42.5583 92.904C43.968 93.2707 45.4478 93.4965 46.9462 93.5796V76.3866C44.874 76.374 42.74 76.2385 40.3871 75.6098C35.6525 74.3452 30.9116 71.3499 30.9116 64.4417C30.9116 59.7193 34.249 56.1785 38.9836 54.0847C41.3654 53.0315 44.1145 52.3413 46.9462 52.0776V46.891L46.9442 46.8874ZM51.0513 76.3523V93.4604C53.2515 93.2147 55.3546 92.6727 57.1729 91.8688C60.5763 90.3621 62.9787 87.9016 62.9787 84.7112C62.9787 82.5343 62.3451 80.9373 61.3647 79.7793C60.1305 78.3232 58.2833 77.4633 56.4237 76.9701C54.593 76.4824 52.8139 76.3649 51.0534 76.3523H51.0513ZM46.9442 55.6925C44.7481 55.9382 42.643 56.4802 40.8246 57.2841C37.4171 58.7907 35.0168 61.2495 35.0168 64.4417C35.0168 69.2326 38.2984 71.3102 41.5738 72.1846C43.4066 72.6723 45.1836 72.7898 46.9442 72.8042V55.6925ZM55.2267 23.805C55.2741 23.6858 55.336 23.5737 55.4103 23.4672L64.0066 8.42397C60.6135 9.37964 56.3205 10.3787 54.0172 6.84685C51.8955 3.59505 49.006 3.59324 48.9977 3.59324C48.9895 3.59324 46.1 3.59505 43.9783 6.84685C41.675 10.3787 37.38 9.37964 33.9889 8.42397L42.6677 23.6135L42.7627 23.805H55.2287H55.2267ZM38.4986 24.3181L28.8911 7.50443C28.6971 7.22803 28.5835 6.90466 28.5835 6.5578C28.5835 4.82531 29.6217 4.17676 31.3946 4.17676C32.3275 4.17676 33.4276 4.4929 34.6948 4.85241C36.8083 5.4558 39.6461 6.26333 40.4201 5.07823C43.7327 0.00180654 48.9833 0 48.9998 0C49.0143 0 54.2669 0.00180654 57.5795 5.07823C58.3535 6.26514 61.1893 5.4558 63.3048 4.85241C64.57 4.4929 65.6742 4.17676 66.605 4.17676C68.3779 4.17676 69.4161 4.82531 69.4161 6.5578H69.4058C69.4058 6.82698 69.3377 7.10157 69.1891 7.3581L59.499 24.3181C60.2028 24.6017 60.8405 24.9937 61.3833 25.467L61.3936 25.4761L61.4473 25.5248L61.4576 25.5339C62.5907 26.5564 63.2924 27.9456 63.2924 29.4722C63.2924 31.024 62.5618 32.4421 61.3936 33.4683L61.3833 33.4773L61.3276 33.5243L61.3173 33.5333C61.1769 33.6525 61.0263 33.7663 60.8756 33.8747C71.9258 40.2699 112.552 66.7035 91.5784 99.1022C87.5063 105.391 81.3187 109.499 73.8308 111.96C66.5266 114.364 57.9902 115.186 48.9998 114.966C40.0094 115.186 31.471 114.366 24.1688 111.96C16.6809 109.499 10.4933 105.391 6.4212 99.1022C-14.5503 66.7035 26.0697 40.2699 37.1199 33.8747C36.9424 33.7501 36.7732 33.6182 36.6122 33.4773L36.6019 33.4683L36.5482 33.4195L36.5379 33.4104C35.4048 32.3879 34.7031 30.9951 34.7031 29.4722C34.7031 27.9167 35.4337 26.5022 36.6019 25.4761L36.6122 25.467L36.6679 25.42L36.6782 25.411C37.2066 24.9612 37.8237 24.589 38.4986 24.3181ZM55.6374 35.1375H42.3623C42.193 35.3037 41.9908 35.4392 41.7637 35.5386C39.0744 36.9441 -11.5844 64.0153 9.9794 97.33C13.5355 102.826 18.9925 106.428 25.6115 108.605C32.3977 110.838 40.4325 111.598 48.942 111.383H49.0535C57.5651 111.598 65.5978 110.838 72.384 108.605C79.003 106.43 84.46 102.826 88.0161 97.33C110.135 63.1626 56.2669 35.5566 56.1141 35.4771C55.9325 35.3832 55.7715 35.2676 55.6374 35.1375Z" fill="black"/>
</svg>
