<svg width="108" height="105" viewBox="0 0 108 105" fill="none" xmlns="http://www.w3.org/2000/svg">
<path d="M94.1633 7.69523L81.6693 7.68339L81.6734 3.31462C81.6741 2.5752 81.3503 1.86577 80.7732 1.34238C80.1961 0.818991 79.4129 0.524518 78.596 0.523744C77.7792 0.52297 76.9955 0.815957 76.4174 1.33825C75.8392 1.86055 75.5141 2.56937 75.5134 3.30878L75.5092 7.67755L31.6581 7.63599L31.6623 3.26721C31.663 2.5278 31.3391 1.81837 30.762 1.29498C30.1849 0.771588 29.4017 0.477116 28.5849 0.476341C27.768 0.475567 26.9843 0.768555 26.4062 1.29085C25.8281 1.81314 25.5029 2.52196 25.5022 3.26137L25.4981 7.63015L13.0231 7.61832C9.5965 7.61833 6.30995 8.8481 3.88388 11.0381C1.45781 13.2281 0.0901729 16.1996 0.0807642 19.3012L0.0111495 92.7468C0.0125221 95.8497 1.37357 98.8257 3.79571 101.022C6.21786 103.218 9.50331 104.455 12.9313 104.462L94.0715 104.538C97.499 104.538 100.786 103.307 103.212 101.115C105.638 98.9237 107.004 95.9507 107.011 92.8482L107.081 19.4026C107.077 16.3014 105.716 13.3277 103.294 11.1332C100.873 8.93867 97.5894 7.70238 94.1633 7.69523ZM13.0178 13.1942L25.4928 13.2061L25.4886 17.5748C25.4879 18.3142 25.8118 19.0237 26.3889 19.5471C26.966 20.0705 27.7491 20.3649 28.566 20.3657C29.3829 20.3665 30.1666 20.0735 30.7447 19.5512C31.3228 19.0289 31.648 18.3201 31.6487 17.5807L31.6528 13.2119L75.5094 13.2535L75.5052 17.6222C75.5045 18.3616 75.8284 19.0711 76.4055 19.5945C76.9826 20.1179 77.7657 20.4123 78.5826 20.4131C79.3995 20.4139 80.1832 20.1209 80.7613 19.5986C81.3394 19.0763 81.6646 18.3675 81.6653 17.6281L81.6694 13.2593L94.158 13.2711C95.948 13.2806 97.6617 13.9295 98.9261 15.0767C100.191 16.2238 100.903 17.7765 100.91 19.3968L100.902 27.264L6.23338 27.1743L6.24083 19.307C6.25025 17.6846 6.96799 16.1315 8.23752 14.9864C9.50706 13.8413 11.2254 13.1971 13.0178 13.1942ZM94.0767 98.9626L12.9366 98.8856C11.1428 98.8794 9.42444 98.2309 8.15685 97.0818C6.88925 95.9327 6.17541 94.3763 6.17122 92.7526L6.22809 32.7502L100.897 32.8399L100.84 92.8423C100.833 94.4639 100.118 96.0171 98.8512 97.1635C97.5843 98.3098 95.8682 98.9565 94.0767 98.9626Z" fill="black"/>
<path d="M32.6121 41.3972L16.5627 41.382C16.1584 41.3813 15.7579 41.4527 15.3841 41.5922C15.0103 41.7317 14.6705 41.9365 14.3842 42.1949C14.0979 42.4533 13.8707 42.7603 13.7156 43.0983C13.5605 43.4362 13.4804 43.7986 13.4801 44.1646L13.4663 58.6944C13.4656 59.4338 13.7894 60.1432 14.3666 60.6666C14.9437 61.19 15.7268 61.4845 16.5437 61.4852L32.593 61.5004C33.4099 61.5012 34.1936 61.2082 34.7717 60.6859C35.3498 60.1636 35.675 59.4548 35.6757 58.7154L35.6895 44.1856C35.6894 43.4466 35.3653 42.7378 34.7882 42.215C34.2112 41.6921 33.4285 41.398 32.6121 41.3972ZM29.5183 55.9216L19.629 55.9123L19.6375 46.9584L29.5267 46.9677L29.5183 55.9216Z" fill="black"/>
<path d="M61.3074 41.4244L45.2581 41.4092C44.4417 41.4084 43.6584 41.7011 43.0804 42.2228C42.5024 42.7446 42.1769 43.4528 42.1755 44.1918L42.1617 58.7216C42.161 59.461 42.4848 60.1704 43.0619 60.6938C43.6391 61.2172 44.4222 61.5117 45.2391 61.5124L61.2884 61.5276C62.1053 61.5284 62.889 61.2354 63.4671 60.7131C64.0452 60.1908 64.3704 59.482 64.3711 58.7426L64.3848 44.2128C64.3852 43.8468 64.3058 43.4843 64.1513 43.1461C63.9968 42.8078 63.7702 42.5004 63.4844 42.2414C63.1986 41.9825 62.8592 41.777 62.4857 41.6368C62.1122 41.4967 61.7118 41.4245 61.3074 41.4244ZM58.2164 55.9488L48.3244 55.9395L48.3329 46.9856L58.2248 46.9949L58.2164 55.9488Z" fill="black"/>
<path d="M90.2174 41.4518L74.1681 41.4366C73.3517 41.4358 72.5684 41.7285 71.9903 42.2502C71.4123 42.772 71.0868 43.4802 71.0854 44.2192L71.0716 58.749C71.0709 59.4884 71.3948 60.1978 71.9719 60.7212C72.549 61.2446 73.3321 61.5391 74.149 61.5398L90.1983 61.555C91.0152 61.5558 91.7989 61.2628 92.377 60.7405C92.9551 60.2182 93.2803 59.5094 93.281 58.77L93.2948 44.2402C93.2951 43.8742 93.2158 43.5117 93.0613 43.1735C92.9068 42.8352 92.6802 42.5278 92.3944 42.2689C92.1086 42.0099 91.7692 41.8044 91.3957 41.6642C91.0221 41.5241 90.6217 41.4519 90.2174 41.4518ZM87.1263 55.9762L77.2343 55.9669L77.2428 47.013L87.1348 47.0223L87.1263 55.9762Z" fill="black"/>
<path d="M32.585 69.9061L16.5357 69.8909C15.7189 69.8901 14.9352 70.1831 14.357 70.7054C13.7789 71.2277 13.4537 71.9365 13.453 72.6759L13.4393 87.2033C13.4386 87.9427 13.7624 88.6521 14.3395 89.1755C14.9167 89.6989 15.6998 89.9934 16.5167 89.9941L32.566 90.0094C33.3829 90.0101 34.1666 89.7171 34.7447 89.1948C35.3228 88.6725 35.648 87.9637 35.6487 87.2243L35.6624 72.697C35.6628 72.3309 35.5834 71.9682 35.429 71.6298C35.2745 71.2914 35.0479 70.9839 34.7622 70.7247C34.4764 70.4656 34.1371 70.2599 33.7635 70.1194C33.39 69.979 32.9895 69.9065 32.585 69.9061ZM29.4912 84.4305L19.602 84.4211L19.6105 75.4697L29.4997 75.4791L29.4912 84.4305Z" fill="black"/>
<path d="M61.2804 69.9333L45.2311 69.9181C44.4142 69.9173 43.6305 70.2103 43.0524 70.7326C42.4743 71.2549 42.1491 71.9637 42.1484 72.7031L42.1347 87.2305C42.134 87.9699 42.4578 88.6793 43.0349 89.2027C43.612 89.7261 44.3952 90.0206 45.212 90.0213L61.2614 90.0365C62.0782 90.0373 62.8619 89.7443 63.44 89.222C64.0182 88.6997 64.3433 87.9909 64.344 87.2515L64.3578 72.7242C64.3585 71.9848 64.0347 71.2753 63.4576 70.7519C62.8804 70.2285 62.0973 69.9341 61.2804 69.9333ZM58.1893 84.4577L48.2974 84.4483L48.3059 75.4969L58.1978 75.5063L58.1893 84.4577Z" fill="black"/>
<path d="M90.1904 69.9607L74.1411 69.9455C73.3242 69.9447 72.5405 70.2377 71.9624 70.76C71.3842 71.2823 71.0591 71.9911 71.0584 72.7305L71.0446 87.2579C71.0439 87.9973 71.3677 88.7067 71.9449 89.2301C72.522 89.7535 73.3051 90.048 74.122 90.0487L90.1713 90.064C90.9882 90.0647 91.7719 89.7717 92.35 89.2494C92.9281 88.7271 93.2533 88.0183 93.254 87.2789L93.2678 72.7516C93.2681 72.3855 93.1888 72.0228 93.0343 71.6844C92.8799 71.346 92.6533 71.0385 92.3675 70.7793C92.0817 70.5202 91.7424 70.3145 91.3688 70.174C90.9953 70.0336 90.5948 69.9611 90.1904 69.9607ZM87.0993 84.4851L77.2073 84.4757L77.2158 75.5243L87.1078 75.5337L87.0993 84.4851Z" fill="black"/>
</svg>
