<svg width="107" height="105" viewBox="0 0 107 105" fill="none" xmlns="http://www.w3.org/2000/svg">
<path d="M106.988 22.0152V13.7954C106.713 10.964 104.827 9.08056 102.129 8.80623H85.8066V5.16414C85.8066 2.60715 83.646 0.449341 81.0858 0.449341H24.4493C21.8891 0.449341 19.7286 2.60715 19.7286 5.16414V8.80623H4.89177C2.1943 8.94331 0.308442 10.964 0.0337638 13.7954V22.0152C-0.103663 24.173 -0.778033 45.0529 21.6144 48.5577C25.1237 58.3865 33.2165 66.2069 43.4698 69.1631V82.4967L25.6608 90.9783C25.6608 90.9783 25.5234 90.9783 25.5234 91.1156C22.9632 92.5998 21.6144 94.7577 21.6144 97.1774V100.009C21.8891 102.703 23.775 104.449 26.6099 104.449H79.0751C81.91 104.449 83.9333 102.703 84.0706 100.009V97.1774C84.0706 94.7577 82.7218 92.5998 80.1616 91.1156L80.0242 90.9783L62.4899 82.6214V69.0383C72.3311 66.0697 80.2989 58.3987 83.9331 48.6948C91.4888 47.7468 97.2836 44.928 101.33 40.2132C107.537 32.7918 106.988 23.3622 106.988 22.0152ZM20.2655 43.3065C3.68046 39.4025 4.89195 23.2375 5.0292 22.4267C5.0292 22.2895 5.0292 22.2895 5.0292 22.1524V14.0699C5.0292 13.9326 5.0292 13.7955 5.0292 13.7955H19.7286V37.5068C19.7286 38.4548 19.7286 39.253 19.866 40.201C19.866 40.3383 19.866 40.4753 19.866 40.4753C19.9908 41.423 20.1283 42.2214 20.2655 43.3065C20.2655 43.1692 20.2655 43.1692 20.2655 43.3065ZM79.0751 97.0527V99.3478H26.4724V97.0527C26.4724 96.3792 27.2842 95.7057 27.8212 95.4312L46.1673 86.8123H59.3803L77.7264 95.4312C78.2635 95.7057 79.0751 96.3792 79.0751 97.0527ZM57.3572 70.5101V81.8232H48.4526V70.5101H57.3572ZM52.7739 65.5334C40.0978 65.5334 29.4448 57.1765 25.9355 45.7262C25.7981 45.0527 25.5358 44.3792 25.3986 43.7057C25.1239 42.4957 24.9989 41.1487 24.8616 39.9389C24.8616 39.8016 24.8616 39.6646 24.8616 39.5397C24.8616 38.8662 24.7242 38.3298 24.7242 37.6562V5.45087H80.6987V37.3817C80.6987 38.0552 80.6987 38.5917 80.5613 39.2652C80.5613 39.4025 80.5613 39.5395 80.5613 39.6644C80.5613 40.2007 80.4239 40.8743 80.4239 41.4106V41.5479C80.2864 42.2214 80.1492 42.7578 80.0242 43.4313C80.0242 43.5686 80.0242 43.7057 79.8868 43.8305C79.7493 44.3668 79.6121 44.9032 79.4871 45.4521C76.1028 57.0393 65.3126 65.5334 52.7739 65.5334ZM97.4212 37.1074C94.5863 40.4752 90.5399 42.633 85.2821 43.5684V43.4312C85.4195 42.4831 85.5567 41.6849 85.6817 40.7369C85.6817 40.5997 85.6817 40.4626 85.6817 40.4626C85.8192 39.5146 85.8192 38.5791 85.8192 37.6313V13.8079H101.867C102.005 13.8079 102.005 13.8079 102.005 13.8079C102.005 13.8079 102.005 13.9452 102.005 14.0823V22.1648C102.005 22.3021 102.005 22.3021 102.005 22.4391C102.005 22.5638 102.679 30.7711 97.4212 37.1074ZM47.641 53.8088C47.2413 54.7568 46.2923 55.4303 45.3431 55.4303C45.0684 55.4303 44.8061 55.4303 44.3938 55.2931C36.1638 52.1998 34.4154 44.7908 34.5526 41.423V16.1028C34.5526 14.7558 35.6267 13.6831 36.9754 13.6831C38.3242 13.6831 39.3982 14.7558 39.3982 16.1028V41.5603C39.3982 41.9594 39.1236 48.1585 46.0048 50.7155C47.516 51.1145 48.1905 52.5988 47.641 53.8088Z" fill="black"/>
</svg>
