<svg width="61" height="37" viewBox="0 0 61 37" fill="none" xmlns="http://www.w3.org/2000/svg">
<path d="M57.8653 16.25L10.3978 16.25L26.5178 4.34071C27.707 3.46209 27.707 2.03784 26.5178 1.15921C25.3285 0.280588 23.3999 0.280588 22.2106 1.15921L0.891958 16.9092C-0.297319 17.7878 -0.297319 19.2127 0.891958 20.0907L22.2106 35.8407C22.8053 36.28 23.5849 36.5 24.3646 36.5C25.1435 36.5 25.9231 36.28 26.5178 35.8407C27.707 34.9621 27.707 33.5373 26.5178 32.6592L10.3978 20.75L57.8653 20.75C59.5465 20.75 60.9109 19.7425 60.9109 18.5C60.9109 17.2574 59.5472 16.25 57.8653 16.25Z" fill="black"/>
</svg>
