<svg width="62" height="37" viewBox="0 0 62 37" fill="none" xmlns="http://www.w3.org/2000/svg">
<path d="M3.68444 20.75L51.152 20.75L35.032 32.6593C33.8427 33.5379 33.8427 34.9621 35.032 35.8408C36.2213 36.7194 38.1499 36.7194 39.3392 35.8408L60.6578 20.0908C61.8471 19.2121 61.8471 17.7873 60.6578 16.9093L39.3391 1.15925C38.7445 0.719936 37.9649 0.5 37.1852 0.5C36.4063 0.5 35.6267 0.719936 35.032 1.15925C33.8427 2.03787 33.8427 3.46269 35.032 4.34075L51.152 16.25L3.68444 16.25C2.00331 16.25 0.638916 17.2574 0.638916 18.5C0.638916 19.7426 2.00255 20.75 3.68444 20.75Z" fill="black"/>
</svg>
