<svg width="112" height="124" viewBox="0 0 112 124" fill="none" xmlns="http://www.w3.org/2000/svg">
<path d="M0.499904 35.109V26.4607C0.50729 24.9219 2.35152 22.1738 2.42961 22.1063C16.5472 8.30772 35.8588 0.5 56.015 0.5C76.218 0.5 95.5934 8.34499 109.719 22.2268C109.733 22.2268 111.5 24.929 111.5 26.4604V35.1087C111.5 38.2772 109.077 42.0465 106.125 43.4567L104.859 44.0577C101.921 45.4839 97.1556 45.349 94.2968 43.7875L83.7184 37.9773C80.8437 36.4003 78.4526 32.5119 78.4526 29.3437V23.5695C64.5772 15.8972 47.4294 15.9055 33.5466 23.5624V29.3437C33.5466 32.5122 31.1557 36.3854 28.2961 37.9773L17.7024 43.7725C14.8515 45.349 10.093 45.4839 7.13266 44.0582L5.87433 43.4577C2.92213 42.0312 0.499904 38.2772 0.499904 35.109ZM112 85.0627V115.812C112 120.038 108.405 123.5 104 123.5H7.99951C3.60854 123.5 0 120.038 0 115.812V85.0627C0 80.8366 2.54674 74.9281 5.6559 71.9396L26.3435 52.0606C29.4529 49.0721 35.6087 46.6249 39.9997 46.6249V38.9371C43.7807 34.1031 49.7025 31.25 55.9995 31.25C62.2969 31.25 68.2338 34.1031 71.9985 38.9371V46.6249C76.405 46.6249 82.5461 49.0721 85.655 52.0606L106.343 71.9396C109.453 74.9284 112 80.8369 112 85.0627ZM80.0001 85.0627C80.0001 72.3219 69.2658 61.9997 55.9997 61.9997C42.7495 61.9997 31.9996 72.3219 31.9996 85.0627C31.9996 97.8035 42.7495 108.125 55.9997 108.125C69.2658 108.125 80.0001 97.8035 80.0001 85.0627ZM55.9997 69.6871C47.1795 69.6871 39.9999 76.587 39.9999 85.0627C39.9999 93.5384 47.1795 100.438 55.9997 100.438C64.8286 100.438 71.9987 93.5381 71.9987 85.0627C71.9987 76.587 64.8286 69.6871 55.9997 69.6871Z" fill="#1E1E1E"/>
</svg>
